<?xml version="1.0" encoding="utf-8"?>
<!-- Generator: Adobe Illustrator 21.0.0, SVG Export Plug-In . SVG Version: 6.00 Build 0)  -->
<svg version="1.1" id="Layer_1" xmlns="http://www.w3.org/2000/svg" xmlns:xlink="http://www.w3.org/1999/xlink" x="0px" y="0px"
	 viewBox="0 0 41 40" style="enable-background:new 0 0 41 40;" xml:space="preserve">
<title></title>
<g id="icomoon-ignore">
</g>
<g>
	<g>
		<path d="M16.7,14c-0.5,0-0.8,0.4-0.8,0.8V21c0,0.4,0.4,0.8,0.8,0.8c0.5,0,0.8-0.4,0.8-0.8v-6.2C17.5,14.3,17.1,14,16.7,14z"/>
		<path d="M24.1,14c-0.5,0-0.8,0.4-0.8,0.8v3.8l-3.2-4.3C20,14.1,19.7,14,19.5,14c-0.1,0-0.2,0-0.3,0c-0.3,0.1-0.6,0.4-0.6,0.8V21
			c0,0.4,0.4,0.8,0.8,0.8c0.5,0,0.8-0.4,0.8-0.8v-3.8l3.2,4.3c0.2,0.2,0.4,0.3,0.7,0.3c0.1,0,0.2,0,0.3,0c0.3-0.1,0.6-0.4,0.6-0.8
			v-6.2C25,14.3,24.6,14,24.1,14z"/>
		<path d="M14.3,20.2H12v-5.4c0-0.4-0.4-0.8-0.8-0.8c-0.4,0-0.8,0.4-0.8,0.8V21c0,0.4,0.4,0.8,0.8,0.8h3.1c0.5,0,0.8-0.4,0.8-0.8
			C15.1,20.5,14.7,20.2,14.3,20.2z"/>
		<path d="M32.6,0H8.4C3.8,0,0,3.8,0,8.4v23.1C0,36.2,3.8,40,8.4,40h24.1c4.6,0,8.4-3.8,8.4-8.4V8.4C41,3.8,37.2,0,32.6,0z
			 M32.7,25.4c-3.3,3.8-10.6,8.4-12.3,9.1c-1.7,0.7-1.4-0.4-1.4-0.8l0.2-1.3c0.1-0.4,0.1-1-0.1-1.4c-0.2-0.4-0.9-0.7-1.4-0.8
			c-7.5-1-13-6.2-13-12.5c0-7,7-12.7,15.6-12.7C29,5,36,10.7,36,17.7C36,20.5,34.9,23,32.7,25.4z"/>
	</g>
	<path d="M30,15.6c0.5,0,0.8-0.4,0.8-0.8c0-0.4-0.4-0.8-0.8-0.8h-3.1c-0.5,0-0.8,0.4-0.8,0.8V21c0,0.4,0.4,0.8,0.8,0.8H30
		c0.5,0,0.8-0.4,0.8-0.8c0-0.5-0.4-0.8-0.8-0.8h-2.3v-1.5H30c0.5,0,0.8-0.4,0.8-0.8c0-0.4-0.4-0.8-0.8-0.8h-2.3v-1.5H30z"/>
</g>
</svg>
