<?xml version="1.0" encoding="utf-8"?>
<!-- Generator: Adobe Illustrator 21.0.0, SVG Export Plug-In . SVG Version: 6.00 Build 0)  -->
<svg version="1.1" id="Layer_1" xmlns="http://www.w3.org/2000/svg" xmlns:xlink="http://www.w3.org/1999/xlink" x="0px" y="0px"
	 viewBox="0 0 41 40" style="enable-background:new 0 0 41 40;" xml:space="preserve">
<title></title>
<g id="icomoon-ignore">
</g>
<title></title>
<g id="icomoon-ignore_1_">
</g>
<g>
	<polygon points="17.6,23.6 25.2,19.7 17.6,15.8 	"/>
	<path d="M32.6,0H8.4C3.8,0,0,3.8,0,8.4v23.1C0,36.2,3.8,40,8.4,40h24.1c4.6,0,8.4-3.8,8.4-8.4V8.4C41,3.8,37.2,0,32.6,0z
		 M34.5,21.1c0,2.3-0.3,4.5-0.3,4.5s-0.3,1.9-1.1,2.8c-1.1,1.1-2.3,1.1-2.8,1.2c-3.9,0.3-9.8,0.3-9.8,0.3s-7.3-0.1-9.5-0.3
		c-0.6-0.1-2-0.1-3.1-1.2c-0.8-0.8-1.1-2.8-1.1-2.8s-0.3-2.3-0.3-4.5v-2.1c0-2.3,0.3-4.5,0.3-4.5s0.3-1.9,1.1-2.8
		c1.1-1.1,2.3-1.1,2.8-1.2c3.9-0.3,9.8-0.3,9.8-0.3h0c0,0,5.9,0,9.8,0.3c0.5,0.1,1.7,0.1,2.8,1.2c0.8,0.8,1.1,2.8,1.1,2.8
		s0.3,2.3,0.3,4.5V21.1z"/>
</g>
</svg>
